<svg width="17" height="16" viewBox="0 0 17 16" fill="none" xmlns="http://www.w3.org/2000/svg">
<path d="M5.92919 8C5.92919 7.86739 5.9819 7.74021 6.07574 7.64645C6.16957 7.55268 6.29684 7.5 6.42954 7.5H10.9327V4.25C10.9327 3.25 9.87599 2.5 8.93127 2.5H4.17797C3.71367 2.5005 3.26853 2.68503 2.94023 3.01311C2.61192 3.34119 2.42725 3.78602 2.42676 4.25V11.75C2.42725 12.214 2.61192 12.6588 2.94023 12.9869C3.26853 13.315 3.71367 13.4995 4.17797 13.5H9.18145C9.64575 13.4995 10.0909 13.315 10.4192 12.9869C10.7475 12.6588 10.9322 12.214 10.9327 11.75V8.5H6.42954C6.29684 8.5 6.16957 8.44732 6.07574 8.35355C5.9819 8.25979 5.92919 8.13261 5.92919 8ZM15.2891 7.64656L12.7874 5.14656C12.6928 5.05675 12.5668 5.00742 12.4364 5.00909C12.3059 5.01076 12.1812 5.0633 12.089 5.1555C11.9967 5.2477 11.9441 5.37227 11.9425 5.50265C11.9408 5.63303 11.9902 5.75891 12.08 5.85344L13.7274 7.5H10.9327V8.5H13.7274L12.08 10.1466C12.0316 10.1925 11.9929 10.2477 11.9662 10.3089C11.9394 10.37 11.9252 10.4359 11.9243 10.5027C11.9235 10.5694 11.936 10.6356 11.9612 10.6974C11.9863 10.7593 12.0236 10.8154 12.0708 10.8626C12.1181 10.9098 12.1743 10.9471 12.2361 10.9722C12.298 10.9974 12.3643 11.0099 12.4311 11.009C12.4978 11.0082 12.5638 10.994 12.625 10.9672C12.6862 10.9405 12.7414 10.9018 12.7874 10.8534L15.2891 8.35344C15.3829 8.25968 15.4356 8.13255 15.4356 8C15.4356 7.86745 15.3829 7.74032 15.2891 7.64656Z" fill="#8B8B8B"/>
</svg>
